<svg id="Layer_1" data-name="Layer 1" xmlns="http://www.w3.org/2000/svg" viewBox="0 0 291 287.2"><defs><style>.cls-1{fill:none;stroke:#29abe2;}.cls-1,.cls-2{stroke-miterlimit:10;}.cls-2,.cls-7{fill:#e74c3c;}.cls-2{stroke:#000;}.cls-3{fill:#34495e;}.cls-4{fill:#c0392b;}.cls-5{fill:#d35400;}.cls-6{fill:#e67e22;}</style></defs><title>personal_logo_T2</title><path class="cls-1" d="M94.5,99.5" transform="translate(-6 -10.11)"/><path class="cls-1" d="M94.5,200.5" transform="translate(-6 -10.11)"/><path class="cls-1" d="M63.5,200.5" transform="translate(-6 -10.11)"/><path class="cls-1" d="M94.5,98.5" transform="translate(-6 -10.11)"/><path class="cls-1" d="M94.5,200.5" transform="translate(-6 -10.11)"/><ellipse class="cls-2" cx="145.5" cy="143.6" rx="145" ry="143.1"/><path class="cls-3" d="M152,292.5C75.63,292.5,13.5,230.37,13.5,154S75.63,15.5,152,15.5,290.5,77.63,290.5,154,228.37,292.5,152,292.5Z" transform="translate(-6 -10.11)"/><path d="M152,16a138,138,0,0,1,97.58,235.58A138,138,0,1,1,54.42,56.42,137.1,137.1,0,0,1,152,16m0-1A139,139,0,1,0,291,154,139,139,0,0,0,152,15Z" transform="translate(-6 -10.11)"/><polygon class="cls-4" points="96.34 191.06 84.7 170.88 96.36 150.71 119.66 150.72 131.3 170.9 119.64 191.07 96.34 191.06"/><path d="M102.65,161.32h22.72L136.72,181l-11.37,19.67H102.63L91.28,181l11.37-19.67m-.58-1L90.13,181l11.93,20.68h23.87L137.87,181l-11.93-20.68Z" transform="translate(-6 -10.11)"/><polygon class="cls-4" points="96.34 131.06 84.7 110.88 96.36 90.71 119.66 90.72 131.3 110.9 119.64 131.07 96.34 131.06"/><path d="M102.65,101.32h22.72L136.72,121l-11.37,19.67H102.63L91.28,121l11.37-19.67m-.58-1L90.13,121l11.93,20.68h23.87L137.87,121l-11.93-20.68Z" transform="translate(-6 -10.11)"/><polygon class="cls-5" points="104.34 178.06 92.7 157.88 104.36 137.71 127.66 137.72 139.3 157.9 127.64 178.07 104.34 178.06"/><path d="M110.65,148.32h22.72L144.72,168l-11.37,19.67H110.63L99.28,168l11.37-19.67m-.58-1L98.13,168l11.93,20.68h23.87L145.87,168l-11.93-20.68Z" transform="translate(-6 -10.11)"/><polygon class="cls-5" points="102.34 142.06 90.7 121.88 102.36 101.71 125.66 101.72 137.3 121.9 125.64 142.07 102.34 142.06"/><path d="M108.65,112.32h22.72L142.72,132l-11.37,19.67H108.63L97.28,132l11.37-19.67m-.58-1L96.13,132l11.93,20.68h23.87L143.87,132l-11.93-20.68Z" transform="translate(-6 -10.11)"/><polygon class="cls-6" points="113.34 160.06 101.7 139.88 113.36 119.71 136.66 119.72 148.3 139.9 136.64 160.07 113.34 160.06"/><path d="M119.65,130.32h22.72L153.72,150l-11.37,19.67H119.63L108.28,150l11.37-19.67m-.58-1L107.13,150l11.93,20.68h23.87L154.87,150l-11.93-20.68Z" transform="translate(-6 -10.11)"/><rect class="cls-6" x="54.5" y="90.39" width="30" height="101"/><path d="M90,101V201H61V101H90m1-1H60V202H91V100Z" transform="translate(-6 -10.11)"/><rect class="cls-4" x="162.5" y="91.39" width="30" height="101"/><path d="M198,102V202H169V102h29m1-1H168V203h31V101Z" transform="translate(-6 -10.11)"/><polygon class="cls-5" points="192.34 162.06 180.7 141.88 192.36 121.71 215.66 121.72 227.3 141.9 215.64 162.07 192.34 162.06"/><path d="M198.65,132.32h22.72L232.72,152l-11.37,19.67H198.63L187.28,152l11.37-19.67m-.58-1L186.13,152l11.93,20.68h23.87L233.87,152l-11.93-20.68Z" transform="translate(-6 -10.11)"/><rect class="cls-6" x="203.5" y="91.39" width="30" height="101"/><path d="M239,102V202H210V102h29m1-1H209V203h31V101Z" transform="translate(-6 -10.11)"/><polygon class="cls-7" points="81.44 190.96 71.98 174.57 81.45 158.19 100.37 158.2 109.82 174.59 100.35 190.97 81.44 190.96"/><path d="M87.74,168.8h18.34l9.16,15.89-9.18,15.88H87.73l-9.16-15.89,9.18-15.88m-.58-1-9.76,16.88,9.74,16.89h19.5l9.76-16.88-9.74-16.89Z" transform="translate(-6 -10.11)"/><polygon class="cls-7" points="82.69 121.39 73.73 105.87 82.7 90.36 100.62 90.37 109.57 105.89 100.6 121.4 82.69 121.39"/><path d="M89,101h17.34L115,116l-8.68,15H89l-8.66-15L89,101m-.58-1-9.25,16,9.24,16h18.5l9.25-16-9.24-16Z" transform="translate(-6 -10.11)"/></svg>